<?xml version="1.0" encoding="utf-8"?>
<!-- Generator: Adobe Illustrator 20.1.0, SVG Export Plug-In . SVG Version: 6.00 Build 0)  -->
<svg version="1.1" id="Слой_1" xmlns="http://www.w3.org/2000/svg" xmlns:xlink="http://www.w3.org/1999/xlink" x="0px" y="0px"
	 viewBox="0 0 50 500" style="enable-background:new 0 0 50 500;" xml:space="preserve">
<style type="text/css">
	.st0{fill:#FFFFFF;}
</style>
<g>
	<path class="st0" d="M38.3,58.2l-4.7,0c-3.7,0-4.4,1.7-4.4,4.3v5.6H38l0,8.8h-8.7v22.6h-9.1V77h-7.6v-8.8h7.6v-6.5
		c0-7.5,4.6-11.7,11.3-11.7l6.8,0L38.3,58.2L38.3,58.2z"/>
</g>
<g>
	<path class="st0" d="M47.4,194.4c-1.5-1.8-3.2-3.3-4.9-4.9c-1.5-1.5-1.6-2.3-0.4-4c1.3-1.8,2.7-3.6,4-5.4c1.2-1.7,2.5-3.4,3.1-5.4
		c0.4-1.3,0-1.9-1.3-2.1c-0.2,0-0.5,0-0.7,0l-7.9,0c-1,0-1.5,0.4-1.9,1.3c-0.5,1.2-0.9,2.3-1.5,3.5c-1.3,2.5-2.7,5-4.6,7.1
		c-0.4,0.5-0.9,1-1.6,0.8c-0.9-0.3-1.2-1.8-1.2-2.3l0-9.1c-0.2-1.3-0.5-1.9-1.8-2.1l-8.2,0c-1.1,0-1.6,0.4-2.2,1.1
		c-0.3,0.4-0.4,0.7,0.3,0.8c1.4,0.3,2.1,1.1,2.3,2.5c0.3,2.2,0.3,4.4,0.1,6.6c-0.1,0.6-0.2,1.3-0.4,1.9c-0.4,0.9-1,1.1-1.9,0.6
		c-0.8-0.5-1.3-1.3-1.8-2c-2-2.8-3.5-5.8-4.8-8.9c-0.4-0.9-1-1.5-2-1.5c-2.4,0-4.7,0-7.1,0c-1.4,0-1.8,0.7-1.3,2
		c2.6,5.7,5.4,11.3,9.2,16.4c1.9,2.6,4.1,4.9,7,6.5c3.2,1.8,6.7,2.4,10.4,2.2c1.7-0.1,2.2-0.5,2.3-2.2c0.1-1.2,0.2-2.3,0.8-3.4
		c0.6-1,1.4-1.2,2.4-0.6c0.5,0.3,0.9,0.7,1.3,1.2c1,1.1,1.9,2.1,2.9,3.2c1.3,1.3,2.7,2,4.6,1.9l7.3,0c1.2-0.1,1.8-1.5,1.1-2.8
		C48.7,196,48.1,195.1,47.4,194.4z"/>
</g>
<g>
	<path class="st0" d="M49.2,265.3c-0.1-0.1-0.2-0.1-0.3-0.1c-1.4,0.6-2.9,1.1-4.5,1.4c1.7-1.2,2.9-3,3.5-4.9c0-0.1,0-0.2-0.1-0.3
		c-0.1-0.1-0.2-0.1-0.3,0c-1.9,1.1-3.9,1.9-6,2.3c-1.9-1.9-4.5-3.1-7.2-3.1c-5.5,0-10,4.5-10,10c0,0.7,0.1,1.3,0.2,2
		C17,272.1,9.8,268.4,5,262.5c0-0.1-0.1-0.1-0.2-0.1c-0.1,0-0.1,0.1-0.2,0.1c-0.9,1.5-1.4,3.3-1.4,5c0,3.1,1.4,5.9,3.8,7.8
		c-1.2-0.1-2.4-0.5-3.5-1.1c-0.1,0-0.2,0-0.2,0c-0.1,0-0.1,0.1-0.1,0.2l0,0.1c0,4.4,2.9,8.3,7,9.5c-1.1,0.2-2.2,0.2-3.3,0
		c-0.1,0-0.2,0-0.2,0.1c-0.1,0.1-0.1,0.2,0,0.2c1.2,3.9,4.7,6.6,8.7,6.9C11.9,293.7,8,295,3.8,295c-0.8,0-1.5,0-2.3-0.1
		c-0.1,0-0.2,0.1-0.3,0.2c0,0.1,0,0.2,0.1,0.3c4.5,2.9,9.7,4.4,15.1,4.4c17.5,0,28-14.2,28-28c0-0.4,0-0.8,0-1.1
		c1.9-1.4,3.5-3.1,4.8-5C49.3,265.5,49.3,265.3,49.2,265.3z"/>
</g>
<path class="st0" d="M6.2,350c-3.3,0-5.9,2.7-5.9,5.9c0,3.3,2.7,5.9,5.9,5.9c3.3,0,5.9-2.7,5.9-5.9C12.2,352.6,9.5,350,6.2,350z"/>
<rect x="1.1" y="366.3" class="st0" width="10.2" height="33"/>
<path class="st0" d="M49.7,381.2c0-8.9-1.9-15.7-12.3-15.7c-5,0-8.3,2.7-9.7,5.3h-0.1v-4.5h-9.8h0v33H28V383c0-4.3,0.8-8.5,6.1-8.5
	c5.3,0,5.3,4.9,5.3,8.7v16h10.2"/>
<g id="XMLID_122_">
	<g>
		<path class="st0" d="M41.3,476.4c0.1-0.9,0.2-2,0.3-3.1c0-4.9-2.4-6.7-2.8-7.5c0.7-3.7-0.1-5.4-0.5-6c-1.3-0.5-4.7,1.2-6.5,2.4
			c-3-0.9-9.2-0.8-11.6,0.2c-4.3-3.1-6.6-2.6-6.6-2.6s-1.5,2.7-0.4,6.5c-1.4,1.8-2.5,3.1-2.5,6.5c0,0.8,0.1,1.6,0.1,2.3
			c1.2,6.5,6.3,9.2,11.4,9.7c-0.8,0.6-1.7,1.7-1.8,2.9c-0.9,0.6-2.9,0.8-4.3,0.3c-2.1-0.7-2.9-4.8-6-4.2c-0.7,0.1-0.5,0.6,0,0.9
			c0.9,0.6,1.8,1.4,2.5,3c0.5,1.3,1.6,3.5,5.2,3.5c1.4,0,2.4-0.2,2.4-0.2s0,3.2,0,4.5c0,1.4-1.9,1.8-1.9,2.5c0,0.3,0.6,0.3,1.2,0.3
			c1,0,3.1-0.8,3.1-2.3c0-1.2,0-5.2,0-5.9c0-1.5,0.8-2,0.8-2s0.1,8.2-0.2,9.2c-0.3,1.3-1,1.1-1,1.7c0,0.9,2.6,0.2,3.4-1.7
			c0.7-1.5,0.4-9.5,0.4-9.5l0.7,0c0,0,0,3.7,0,5.3c0,1.7-0.2,3.9,0.8,5c0.7,0.7,2.7,1.9,2.7,0.8c0-0.6-1.4-1.2-1.4-2.9v-7.9
			c0.9,0,1.1,2.6,1.1,2.6l0.3,4.8c0,0-0.2,1.8,1.9,2.5c0.7,0.3,2.3,0.3,2.4-0.1c0.1-0.4-1.9-1.1-1.9-2.4c0-0.8,0-1.3,0-4.9
			c0-3.6-0.5-4.9-2.2-6C35.3,484.3,40.4,482.1,41.3,476.4z"/>
	</g>
</g>
</svg>
